<?xml version="1.0" encoding="UTF-8"?>
<svg id="Layer_3" data-name="Layer 3" xmlns="http://www.w3.org/2000/svg" viewBox="0 0 2122 2122">
  <circle cx="1061" cy="1061" r="1061" fill="#0099d3"/>
  <path d="M1770.96,867.17c0-182.7-148.59-331.34-331.22-331.34-7.94,0-15.95.3-24,.9-78.59-118.16-211.74-190.33-354.74-190.33s-276.14,72.18-354.73,190.33c-8.05-.6-16.06-.9-24-.9-182.64,0-331.23,148.64-331.23,331.34,0,166.68,123.69,304.94,284.07,327.91v457.91c0,67.62,55,122.62,122.61,122.62h606.55c67.62,0,122.61-55.01,122.61-122.62v-457.91c160.38-22.97,284.07-161.24,284.07-327.91ZM1364.27,1681.29h-606.54c-15.33,0-28.3-12.96-28.3-28.3v-457.87c46.21-6.54,90.07-22.72,129.65-47.88,60.7,32.83,129.73,51.25,201.92,51.25s141.22-18.43,201.91-51.25c39.58,25.15,83.45,41.33,129.65,47.88v457.87c0,15.34-12.96,28.3-28.3,28.3ZM1439.73,1104.17c-31.75,0-62.43-6.2-90.95-18.12,57.39-52.62,100.78-121.01,122.57-199.6,6.95-25.1-7.75-51.09-32.85-58.05-25.11-6.95-51.09,7.76-58.05,32.85-39.63,143.03-171,242.92-319.45,242.92s-279.81-99.89-319.45-242.92c-6.95-25.1-32.93-39.81-58.05-32.85-25.1,6.95-39.81,32.95-32.85,58.05,21.78,78.6,65.17,146.99,122.57,199.6-28.52,11.92-59.2,18.12-90.95,18.12-130.63,0-236.9-106.32-236.9-237.01s106.28-237.02,236.9-237.02c13.2,0,26.8,1.18,40.41,3.51,19.64,3.35,39.32-6,49.08-23.39,58.73-104.58,169.56-169.55,289.23-169.55s230.5,64.97,289.24,169.56c9.76,17.39,29.43,26.74,49.08,23.39,13.61-2.33,27.2-3.51,40.4-3.51,130.63,0,236.9,106.33,236.9,237.02.01,130.68-106.26,237.01-236.89,237.01Z" fill="#fff"/>
</svg>