<?xml version="1.0" encoding="UTF-8"?>
<svg id="Capa_1" data-name="Capa 1" xmlns="http://www.w3.org/2000/svg" viewBox="0 0 800 800">
  <path d="M797.4,291.5c0-102.27-83.17-185.47-185.4-185.47-4.44,0-8.93.17-13.43.5C554.57,40.4,480.04,0,400,0s-154.57,40.4-198.56,106.54c-4.51-.34-8.99-.5-13.43-.5C85.78,106.03,2.6,189.23,2.6,291.5c0,93.3,69.24,170.69,159.01,183.55v256.32c0,37.85,30.79,68.64,68.63,68.64h339.51c37.85,0,68.63-30.79,68.63-68.64v-256.32c89.77-12.86,159.01-90.25,159.01-183.55Z" fill="#0099d3"/>
  <path d="M569.76,747.2H230.25c-8.58,0-15.84-7.25-15.84-15.84v-256.29c25.86-3.66,50.42-12.72,72.57-26.8,33.97,18.38,72.61,28.69,113.02,28.69s79.05-10.31,113.02-28.69c22.15,14.08,46.71,23.14,72.57,26.8v256.29c0,8.59-7.25,15.84-15.84,15.84Z" fill="#fff"/>
  <path d="M611.99,424.16c-17.77,0-34.95-3.47-50.91-10.14,32.13-29.45,56.41-67.73,68.61-111.73,3.89-14.05-4.34-28.6-18.39-32.49-14.05-3.89-28.6,4.34-32.49,18.39-22.18,80.06-95.71,135.98-178.81,135.98s-156.62-55.91-178.81-135.98c-3.89-14.05-18.43-22.28-32.49-18.39-14.05,3.89-22.28,18.44-18.39,32.49,12.19,43.99,36.48,82.28,68.61,111.73-15.96,6.67-33.14,10.14-50.91,10.14-73.12,0-132.61-59.51-132.61-132.66s59.49-132.67,132.61-132.67c7.39,0,15,.66,22.62,1.97,11,1.87,22.01-3.36,27.47-13.09,32.88-58.54,94.91-94.91,161.9-94.91s129.02,36.37,161.9,94.91c5.47,9.73,16.47,14.97,27.47,13.09,7.62-1.3,15.23-1.97,22.62-1.97,73.12,0,132.6,59.52,132.6,132.67,0,73.15-59.48,132.66-132.6,132.66Z" fill="#fff"/>
</svg>